<svg width="25" height="25" viewBox="0 0 25 25" fill="none" xmlns="http://www.w3.org/2000/svg">
<path d="M22.9357 12.9405C22.9357 18.7365 18.2369 23.4405 12.4357 23.4405C6.63442 23.4405 1.93567 18.7365 1.93567 12.9405C1.93567 7.13924 6.63442 2.44049 12.4357 2.44049C18.2369 2.44049 22.9357 7.13924 22.9357 12.9405Z" fill="#013E63"/>
<path d="M17.3573 10.2835C17.3 10.317 15.936 11.0224 15.936 12.5864C16.0003 14.3701 17.6573 14.9956 17.6857 14.9956C17.6573 15.029 17.4355 15.8477 16.7787 16.7059C16.2574 17.4452 15.6788 18.1905 14.8003 18.1905C13.9645 18.1905 13.6645 17.6978 12.7003 17.6978C11.6647 17.6978 11.3717 18.1905 10.5788 18.1905C9.70025 18.1905 9.07882 17.4052 8.52912 16.6729C7.81499 15.7144 7.208 14.2103 7.18657 12.7661C7.17213 12.0008 7.32959 11.2485 7.72928 10.6095C8.29341 9.71748 9.30055 9.11192 10.4004 9.09195C11.2431 9.06547 11.9931 9.63109 12.5074 9.63109C13.0003 9.63109 13.9217 9.09195 14.9642 9.09195C15.4142 9.09239 16.6142 9.21871 17.3573 10.2835ZM12.4361 8.93915C12.2861 8.24027 12.7003 7.54138 13.086 7.09557C13.5788 6.55643 14.3572 6.19049 15.0285 6.19049C15.0714 6.88938 14.7998 7.57481 14.3144 8.07401C13.8788 8.61315 13.1288 9.01903 12.4361 8.93915Z" fill="white"/>
</svg>
