<svg width="25" height="25" viewBox="0 0 25 25" fill="none" xmlns="http://www.w3.org/2000/svg">
<path d="M23.4367 13.1737C23.4367 12.3104 23.3652 11.6804 23.2105 11.027H13.151V14.9237H19.0557C18.9367 15.892 18.2939 17.3504 16.8653 18.3303L16.8452 18.4608L20.0259 20.8755L20.2462 20.897C22.27 19.0653 23.4367 16.3703 23.4367 13.1737Z" fill="#014A77"/>
<path d="M13.1504 23.4405C16.0432 23.4405 18.4717 22.5071 20.2456 20.8972L16.8646 18.3304C15.9599 18.9487 14.7456 19.3804 13.1504 19.3804C10.3171 19.3804 7.91236 17.5488 7.05514 15.0171L6.92949 15.0275L3.62223 17.5359L3.57898 17.6537C5.34086 21.0837 8.9599 23.4405 13.1504 23.4405Z" fill="#014A77"/>
<path d="M7.05577 15.0171C6.82958 14.3638 6.69868 13.6638 6.69868 12.9405C6.69868 12.2171 6.82958 11.5171 7.04387 10.8638L7.03787 10.7247L3.68916 8.17603L3.5796 8.2271C2.85344 9.65045 2.43677 11.2488 2.43677 12.9405C2.43677 14.6321 2.85344 16.2304 3.5796 17.6538L7.05577 15.0171Z" fill="#014A77"/>
<path d="M13.1505 6.50046C15.1623 6.50046 16.5194 7.35213 17.2933 8.06384L20.3171 5.17049C18.46 3.47883 16.0433 2.44049 13.1505 2.44049C8.95993 2.44049 5.34087 4.79714 3.57898 8.22711L7.04326 10.8638C7.91238 8.33215 10.3171 6.50046 13.1505 6.50046Z" fill="#014A77"/>
</svg>
